<svg width="128" height="128" viewBox="0 0 128 128" fill="none" xmlns="http://www.w3.org/2000/svg">
  <rect width="128" height="128" rx="32" fill="#173328"/>
  <path d="M64 20L97 36V60C97 82.5 83.9 102.7 64 110C44.1 102.7 31 82.5 31 60V36L64 20Z" fill="#1F8A53"/>
  <path d="M64 33L86 44.3V59.2C86 74.8 77.1 88.9 64 94C50.9 88.9 42 74.8 42 59.2V44.3L64 33Z" fill="#B9DF84"/>
  <path d="M55 68C55 62.4772 59.4772 58 65 58H73C76.3137 58 79 55.3137 79 52C79 48.6863 76.3137 46 73 46H55V39H73C80.1797 39 86 44.8203 86 52C86 59.1797 80.1797 65 73 65H65C63.3431 65 62 66.3431 62 68C62 69.6569 63.3431 71 65 71H86V78H65C59.4772 78 55 73.5228 55 68Z" fill="#173328"/>
</svg>
